<?xml version="1.0" standalone="no"?><svg xmlns="http://www.w3.org/2000/svg" viewBox="0 0 1440 320"><path fill="#B2A4FF" fill-opacity="1" d="M0,224L40,234.7C80,245,160,267,240,240C320,213,400,139,480,122.7C560,107,640,149,720,165.3C800,181,880,171,960,176C1040,181,1120,203,1200,192C1280,181,1360,139,1400,117.3L1440,96L1440,320L1400,320C1360,320,1280,320,1200,320C1120,320,1040,320,960,320C880,320,800,320,720,320C640,320,560,320,480,320C400,320,320,320,240,320C160,320,80,320,40,320L0,320Z"></path></svg>